HIERARCHY
ROOT root
{
	OFFSET 0.000000 0.000000 0.000000
	CHANNELS 6 Xposition Yposition Zposition Zrotation Yrotation Xrotation
	JOINT lhip
	{
		OFFSET 0.058581 -0.082280 -0.017664
		CHANNELS 3 Zrotation Yrotation Xrotation
		JOINT lknee
		{
			OFFSET 0.043451 -0.386469 0.008037
			CHANNELS 3 Zrotation Yrotation Xrotation
			JOINT lankle
			{
				OFFSET -0.014790 -0.426874 -0.037428
				CHANNELS 3 Zrotation Yrotation Xrotation
				JOINT ltoe
				{
					OFFSET 0.041054 -0.060286 0.122042
					CHANNELS 3 Zrotation Yrotation Xrotation
					End Site
					{
						OFFSET 0.000000 0.000000 0.000000
					}
				}
			}
		}
	}
	JOINT rhip
	{
		OFFSET -0.060310 -0.090513 -0.013543
		CHANNELS 3 Zrotation Yrotation Xrotation
		JOINT rknee
		{
			OFFSET -0.043257 -0.383688 -0.004843
			CHANNELS 3 Zrotation Yrotation Xrotation
			JOINT rankle
			{
				OFFSET 0.019056 -0.420046 -0.034562
				CHANNELS 3 Zrotation Yrotation Xrotation
				JOINT rtoe
				{
					OFFSET -0.034840 -0.062106 0.130323
					CHANNELS 3 Zrotation Yrotation Xrotation
					End Site
					{
						OFFSET 0.000000 0.000000 0.000000
					}
				}
			}
		}
	}
	JOINT lowerback
	{
		OFFSET 0.004439 0.124404 -0.038385
		CHANNELS 3 Zrotation Yrotation Xrotation
		JOINT upperback
		{
			OFFSET 0.004488 0.137956 0.026820
			CHANNELS 3 Zrotation Yrotation Xrotation
			JOINT chest
			{
				OFFSET -0.002265 0.056032 0.002855
				CHANNELS 3 Zrotation Yrotation Xrotation
				JOINT lowerneck
				{
					OFFSET -0.013390 0.211636 -0.033468
					CHANNELS 3 Zrotation Yrotation Xrotation
					JOINT upperneck
					{
						OFFSET 0.010113 0.088937 0.050410
						CHANNELS 3 Zrotation Yrotation Xrotation
						End Site
						{
							OFFSET 0.000000 0.000000 0.000000
						}
					}
				}
				JOINT lclavicle
				{
					OFFSET 0.071702 0.114000 -0.018898
					CHANNELS 3 Zrotation Yrotation Xrotation
					JOINT lshoulder
					{
						OFFSET 0.122921 0.045205 -0.019046
						CHANNELS 3 Zrotation Yrotation Xrotation
						JOINT lelbow
						{
							OFFSET 0.255332 -0.015649 -0.022946
							CHANNELS 3 Zrotation Yrotation Xrotation
							JOINT lwrist
							{
								OFFSET 0.265709 0.012698 -0.007375
								CHANNELS 3 Zrotation Yrotation Xrotation
								End Site
								{
									OFFSET 0.000000 0.000000 0.000000
								}
							}
						}
					}
				}
				JOINT rclavicle
				{
					OFFSET -0.082954 0.112472 -0.023707
					CHANNELS 3 Zrotation Yrotation Xrotation
					JOINT rshoulder
					{
						OFFSET -0.113228 0.046853 -0.008472
						CHANNELS 3 Zrotation Yrotation Xrotation
						JOINT relbow
						{
							OFFSET -0.260127 -0.014369 -0.031269
							CHANNELS 3 Zrotation Yrotation Xrotation
							JOINT rwrist
							{
								OFFSET -0.269108 0.006794 -0.006027
								CHANNELS 3 Zrotation Yrotation Xrotation
								End Site
								{
									OFFSET 0.000000 0.000000 0.000000
								}
							}
						}
					}
				}
			}
		}
	}
}
MOTION
Frames: 11
Frame Time: 0.033333
1.769966 0.750696 0.984017 -85.892430 3.313000 84.770203 1.535045 -0.801028 1.369960 -3.124250 -14.767837 9.397107 4.249927 8.472906 -17.392294 0.000000 -0.000000 0.000000 4.327148 -1.657982 1.525326 2.918074 1.084572 12.118713 1.965767 -7.889244 -14.483384 0.000000 -0.000000 0.000000 -0.007153 -0.151922 11.714810 2.023894 -3.151392 2.785093 0.795357 -2.788023 6.066640 3.186434 -2.093428 0.049261 -4.223401 -4.800169 8.584472 -26.367724 5.872192 3.128537 -56.948415 -5.516045 7.078342 8.038264 -27.196599 7.793139 -4.677437 -1.127262 -8.907583 24.261618 -3.551976 0.181423 58.227343 1.307688 10.550542 -12.293063 21.839953 -3.209599 6.314959 -0.310609 -7.174447 
1.771334 0.751604 0.983513 -85.870778 3.359112 85.202906 1.580682 -0.873420 0.563394 -3.090916 -14.718783 9.794993 4.174688 8.625711 -17.697533 0.000000 -0.000000 0.000000 4.418771 -1.728813 0.926224 2.931491 1.100337 12.246895 1.974604 -8.046397 -14.569829 0.000000 -0.000000 0.000000 0.160244 -0.162790 11.950946 2.115220 -3.234048 3.542438 0.774362 -2.770540 6.370826 3.236073 -2.260149 0.291750 -4.080341 -4.926605 8.289460 -26.200093 5.961051 3.422620 -56.421325 -5.258680 6.869800 7.869252 -27.274896 7.893665 -4.812443 -1.177851 -8.930227 23.868670 -3.807802 0.355605 58.116267 0.926742 10.125849 -12.292013 21.687831 -3.268639 6.216491 -0.246266 -7.164996 
1.772665 0.752410 0.983214 -85.987033 3.340508 86.067564 1.572671 -1.150965 -0.748786 -3.138840 -14.506447 10.334465 4.130500 8.864621 -17.719399 0.000000 -0.000000 0.000000 4.516838 -1.557159 -0.333253 2.867805 1.161034 12.662435 2.059465 -8.189971 -14.733874 0.000000 -0.000000 0.000000 0.304702 -0.152705 12.752575 2.097421 -3.026208 2.895996 0.746659 -2.839437 6.708136 3.187422 -2.417706 -0.014198 -3.965674 -5.025753 8.257441 -25.785065 6.637191 3.619301 -55.991358 -4.672205 6.847919 7.374520 -27.368832 8.596621 -4.578304 -1.283512 -8.951022 23.400200 -4.591599 0.380202 58.200002 0.047438 10.027563 -12.292975 21.908560 -3.129585 6.008666 -0.116698 -7.731836 
1.774121 0.753590 0.982704 -86.130344 3.299488 86.854311 1.552822 -1.245021 -2.019170 -3.194030 -14.432369 11.001515 4.125750 9.033455 -17.965672 0.000000 -0.000000 0.000000 4.612704 -1.249476 -1.369842 2.787864 1.196826 12.916399 2.263815 -8.437590 -14.997096 0.000000 -0.000000 0.000000 0.455262 -0.227712 13.584130 2.071911 -2.937027 2.702346 0.652437 -2.811638 6.930962 3.131798 -2.487659 -0.157943 -3.921432 -5.259995 8.085678 -25.453636 7.201407 3.850451 -55.366753 -4.172369 6.621278 6.674025 -27.437785 8.865357 -4.784141 -1.225360 -9.092266 23.283011 -5.106611 0.600673 57.891470 -0.531651 9.784683 -11.983013 21.880976 -3.165061 6.000332 0.036409 -7.694533 
1.775272 0.754239 0.982201 -86.296185 3.358966 87.685019 1.761945 -1.380510 -3.193695 -3.434669 -14.183750 11.401255 4.066123 9.126992 -18.070838 0.000000 -0.000000 0.000000 4.708668 -1.098278 -2.534148 2.836010 1.215888 13.219764 2.330278 -8.430116 -15.049344 0.000000 -0.000000 0.000000 0.671298 -0.187206 14.428922 2.091848 -2.791111 2.562003 0.619677 -2.792076 7.057271 3.062134 -2.561823 -0.243505 -3.777365 -5.354306 7.852638 -25.205691 7.493547 4.219783 -55.074695 -3.564466 6.517463 6.598224 -27.340060 9.046723 -4.586497 -1.307100 -9.010726 22.946890 -5.568428 0.827209 57.839750 -1.158720 9.527640 -11.805390 22.179659 -3.182583 5.905924 0.043793 -8.131108 
1.775713 0.755467 0.980479 -86.486616 3.218959 88.797277 1.494545 -1.869487 -5.202580 -3.377314 -13.806956 13.041046 4.271291 9.515759 -18.682267 0.000000 -0.000000 0.000000 4.586711 -0.889221 -4.023374 2.905628 1.277455 13.820233 2.390724 -8.588913 -15.234300 0.000000 -0.000000 0.000000 0.829740 0.172099 14.952811 2.117213 -2.841543 2.323272 0.505325 -2.799286 7.383469 3.075726 -2.646585 -0.401393 -3.643154 -5.530896 7.746941 -25.195893 7.765022 4.549922 -54.676796 -3.245979 6.463307 6.434252 -26.875889 9.012760 -4.661480 -1.196854 -8.847574 22.915471 -6.103150 0.815707 57.818277 -1.594779 9.337778 -11.850575 21.296720 -3.382624 5.754361 -0.102115 -8.149141 
1.778404 0.756675 0.979334 -86.529789 3.337726 89.763853 1.539089 -2.530690 -7.384970 -3.453326 -13.387535 14.933452 4.285990 9.952391 -19.190020 0.000000 -0.000000 0.000000 4.964210 -0.208345 -5.898999 2.632095 1.084447 15.049411 2.528837 -9.098973 -15.717311 0.000000 -0.000000 0.000000 0.999509 -0.214609 16.518053 2.153986 -2.630936 1.505411 0.481009 -2.961299 7.613288 3.135290 -2.586580 -1.036199 -3.704397 -5.682257 7.954370 -25.423672 8.324547 4.598924 -54.384139 -2.834922 6.328182 6.415175 -26.579206 9.056188 -4.641621 -1.246416 -8.512381 22.993620 -6.649584 0.614625 57.356423 -1.785803 9.510874 -11.589865 21.062963 -3.078223 5.729844 0.130399 -7.507857 
1.777632 0.757060 0.976598 -86.668630 3.311684 90.536245 1.396334 -2.990439 -9.109296 -3.554897 -13.122074 16.930627 4.712847 10.375479 -20.200014 0.000000 -0.000000 0.000000 4.894864 -0.230828 -7.386480 2.738629 0.936617 16.499910 2.548253 -8.837967 -16.534062 0.000000 -0.000000 0.000000 1.086937 0.185383 17.464507 2.248504 -2.770971 1.427063 0.518917 -3.034786 7.833520 3.299468 -2.707410 -1.093245 -3.595633 -5.967193 7.746178 -25.436534 8.388022 4.666502 -54.550585 -2.736201 6.270427 6.537537 -25.825074 8.780301 -4.700364 -1.008182 -8.262462 22.832571 -6.361512 0.790808 57.694754 -1.647881 9.244421 -11.827794 20.011120 -3.408410 5.628650 -0.348259 -7.539945 
1.779944 0.758714 0.973282 -87.128894 3.786533 91.895734 2.185528 -3.959072 -12.212607 -4.136129 -12.356978 20.009521 3.733626 11.032616 -21.587244 0.000000 -0.000000 0.000000 5.873606 1.945597 -10.474023 1.908848 0.243038 19.308199 2.590756 -10.140492 -17.480584 0.000000 -0.000000 0.000000 0.947990 0.131230 18.442086 2.846941 -2.551773 2.595041 0.730739 -2.629703 5.784682 2.718521 -2.972965 0.858776 -2.921832 -5.961611 5.045118 -24.799576 8.097636 5.296909 -55.556084 -1.840079 6.056206 6.468651 -25.951921 9.949669 -4.584314 -1.702219 -11.072763 21.812827 -6.075522 1.700494 58.984161 -1.823715 7.778087 -12.423571 19.860303 -1.734109 6.021423 0.647334 -7.649614 
1.780777 0.759925 0.967964 -87.571980 3.789185 92.438425 2.441353 -4.554608 -14.366833 -4.867463 -11.667325 23.101427 4.445070 11.576136 -22.906607 0.000000 -0.000000 0.000000 6.053723 2.758175 -13.219017 1.693025 0.006577 23.294954 2.110423 -10.439659 -18.953913 0.000000 -0.000000 0.000000 0.394440 0.434304 19.905850 3.122831 -2.390535 3.158123 0.965462 -2.524137 5.444059 2.616485 -2.931515 1.593448 -2.628152 -6.202297 4.239521 -24.446375 7.606955 5.508398 -56.537171 -1.766993 6.122804 7.206185 -26.288718 9.756621 -4.665852 -1.252683 -12.161845 21.661634 -5.247059 1.993887 59.569763 -1.549896 7.768454 -13.002081 20.026452 -1.895279 6.342915 0.529821 -8.526569 
1.780059 0.761230 0.960458 -88.007999 3.669640 93.134607 2.705183 -5.162782 -17.211032 -5.894753 -10.689359 27.407258 4.896068 12.031371 -24.609804 0.000000 -0.000000 0.000000 6.047192 3.707585 -16.391966 1.497480 -0.332551 28.035015 1.953718 -10.715280 -20.998482 0.000000 -0.000000 0.000000 -0.123621 0.625905 21.472379 3.284808 -2.257212 2.633616 0.989813 -2.605141 5.638256 2.778798 -2.791019 1.784574 -2.514261 -6.481989 3.916027 -24.431620 7.609875 5.387376 -56.944875 -1.867577 6.207477 7.290921 -26.567956 9.866928 -4.330291 -0.853318 -12.799680 21.817636 -5.376791 1.649325 59.953965 -0.706576 8.082515 -13.124349 20.114812 -1.252449 6.440899 0.356256 -8.410117 
